<?xml version="1.0" encoding="utf-8"?>
<!-- Generator: Adobe Illustrator 16.0.0, SVG Export Plug-In . SVG Version: 6.00 Build 0)  -->
<!DOCTYPE svg PUBLIC "-//W3C//DTD SVG 1.1//EN" "http://www.w3.org/Graphics/SVG/1.1/DTD/svg11.dtd">
<svg version="1.1" id="图层_1" xmlns="http://www.w3.org/2000/svg" xmlns:xlink="http://www.w3.org/1999/xlink" x="0px" y="0px"
	 width="22px" height="23px" viewBox="0 0 22 23" enable-background="new 0 0 22 23" xml:space="preserve">
<path d="M21.7,9.1c-0.2-0.1-0.4-0.1-0.5,0l-4,1.9c-0.2,0.2-0.3,0.5-0.101,0.7c0.2,0.2,0.5,0.3,0.7,0.1l3.2-1.4v8.8l-7.5,2.7
	l-6.3-3.4c-0.1-0.1-0.3-0.1-0.5,0L1,21.2v-8.9L4,11c0.2-0.2,0.3-0.5,0.1-0.7C4,10.1,3.7,10,3.4,10.2l-3.2,1.4C0.1,11.7,0,11.8,0,12
	v10c0,0.2,0.1,0.3,0.2,0.4c0.2,0.1,0.3,0.1,0.5,0L7,19.6l6.3,3.4c0.101,0,0.2,0.1,0.2,0.1c0.1,0,0.2,0,0.2-0.1l8-3
	c0.2-0.1,0.3-0.3,0.3-0.4v-10C22,9.3,21.9,9.2,21.7,9.1z"/>
<path d="M11,1c2.8,0,5,2.2,5,5c0,3.6-3.8,9.6-5,11.3C9.8,15.6,6,9.6,6,6C6,3.2,8.2,1,11,1 M11,0C7.7,0,5,2.7,5,6
	c0,4.5,5.4,12.2,5.6,12.4c0.1,0.1,0.3,0.199,0.4,0.199s0.3-0.1,0.4-0.199C11.6,18.2,17,10.5,17,6C17,2.7,14.3,0,11,0z"/>
<path d="M11,5c0.6,0,1,0.4,1,1s-0.4,1-1,1c-0.6,0-1-0.4-1-1S10.4,5,11,5 M11,4C9.9,4,9,4.9,9,6s0.9,2,2,2c1.1,0,2-0.9,2-2
	S12.1,4,11,4z"/>
</svg>
